<svg width="69" height="70" viewBox="0 0 69 70" fill="none" xmlns="http://www.w3.org/2000/svg">
<g filter="url(#filter0_d_575_416)">
<circle cx="34.5" cy="31.5" r="30.5" fill="#FFC600"/>
</g>
<path d="M31 38.7499C31 38.551 31.079 38.3602 31.2197 38.2196C31.3603 38.0789 31.5511 37.9999 31.75 37.9999H36.25C36.4489 37.9999 36.6397 38.0789 36.7803 38.2196C36.921 38.3602 37 38.551 37 38.7499C37 38.9488 36.921 39.1396 36.7803 39.2803C36.6397 39.4209 36.4489 39.4999 36.25 39.4999H31.75C31.5511 39.4999 31.3603 39.4209 31.2197 39.2803C31.079 39.1396 31 38.9488 31 38.7499ZM26.5 32.0929C26.5 30.1399 28.3525 28.6474 30.295 28.8289C32.7596 29.059 35.2404 29.059 37.705 28.8289C39.6475 28.6474 41.5 30.1399 41.5 32.0929V33.8284C41.5061 34.1603 41.3941 34.4836 41.1839 34.7405C40.9737 34.9974 40.679 35.1712 40.3525 35.2309C39.085 35.4514 36.8425 35.7499 34 35.7499C31.1575 35.7499 28.915 35.4499 27.6475 35.2309C27.321 35.1712 27.0263 34.9974 26.8161 34.7405C26.6059 34.4836 26.4939 34.1603 26.5 33.8284V32.0929ZM33.313 30.8524C33.2545 30.8425 33.1946 30.8465 33.138 30.8643C33.0814 30.882 33.0298 30.9129 32.9875 30.9544L31.6075 32.3044C30.6689 32.2485 29.7327 32.1569 28.801 32.0299C28.7044 32.0203 28.6079 32.0485 28.5317 32.1086C28.4556 32.1687 28.4056 32.2559 28.3924 32.352C28.3792 32.4482 28.4038 32.5457 28.4609 32.6241C28.5181 32.7024 28.6034 32.7556 28.699 32.7724C29.524 32.8864 30.547 32.9959 31.729 33.0619C31.7811 33.0649 31.8332 33.0569 31.882 33.0386C31.9308 33.0202 31.9752 32.9919 32.0125 32.9554L33.1435 31.8514L34.414 34.4164C34.4408 34.4702 34.4801 34.5168 34.5286 34.5523C34.5771 34.5877 34.6335 34.611 34.6929 34.6201C34.7523 34.6292 34.813 34.6239 34.8699 34.6047C34.9269 34.5854 34.9783 34.5527 35.02 34.5094L36.418 33.0544C37.3822 32.9972 38.3439 32.9031 39.301 32.7724C39.3966 32.7556 39.4819 32.7024 39.5391 32.6241C39.5962 32.5457 39.6208 32.4482 39.6076 32.352C39.5944 32.2559 39.5444 32.1687 39.4682 32.1086C39.3921 32.0485 39.2955 32.0203 39.199 32.0299C38.392 32.1409 37.3885 32.2474 36.229 32.3134C36.1346 32.3187 36.0457 32.3594 35.98 32.4274L34.849 33.6049L33.586 31.0549C33.5597 31.0021 33.5212 30.9562 33.4738 30.921C33.4263 30.8858 33.3712 30.8623 33.313 30.8524Z" fill="#263238"/>
<path d="M34.75 22.799C35.036 22.6339 35.2595 22.3791 35.3858 22.074C35.5122 21.769 35.5344 21.4307 35.4489 21.1118C35.3634 20.7928 35.1751 20.511 34.9131 20.31C34.6512 20.109 34.3302 20 34 20C33.6698 20 33.3488 20.109 33.0869 20.31C32.8249 20.511 32.6366 20.7928 32.5511 21.1118C32.4656 21.4307 32.4878 21.769 32.6142 22.074C32.7405 22.3791 32.964 22.6339 33.25 22.799V24.5H30.25C28.4598 24.5 26.7429 25.2112 25.477 26.4771C24.2112 27.7429 23.5 29.4598 23.5 31.25V32C23.1022 32 22.7206 32.1581 22.4393 32.4394C22.158 32.7207 22 33.1022 22 33.5V36.5C22 36.8979 22.158 37.2794 22.4393 37.5607C22.7206 37.842 23.1022 38 23.5 38V39.5C23.5 40.2957 23.8161 41.0588 24.3787 41.6214C24.9413 42.184 25.7044 42.5 26.5 42.5H41.5C42.2956 42.5 43.0587 42.184 43.6213 41.6214C44.1839 41.0588 44.5 40.2957 44.5 39.5V38C44.8978 38 45.2794 37.842 45.5607 37.5607C45.842 37.2794 46 36.8979 46 36.5V33.5C46 33.1022 45.842 32.7207 45.5607 32.4394C45.2794 32.1581 44.8978 32 44.5 32V31.25C44.5 29.4598 43.7888 27.7429 42.523 26.4771C41.2571 25.2112 39.5402 24.5 37.75 24.5H34.75V22.799ZM43 31.25V39.5C43 39.8979 42.842 40.2794 42.5607 40.5607C42.2794 40.842 41.8978 41 41.5 41H26.5C26.1022 41 25.7206 40.842 25.4393 40.5607C25.158 40.2794 25 39.8979 25 39.5V31.25C25 29.8577 25.5531 28.5223 26.5377 27.5377C27.5223 26.5532 28.8576 26 30.25 26H37.75C39.1424 26 40.4777 26.5532 41.4623 27.5377C42.4469 28.5223 43 29.8577 43 31.25Z" fill="#263238"/>
<g clip-path="url(#clip0_575_416)">
<path fill-rule="evenodd" clip-rule="evenodd" d="M39 11.5C39 6.643 43.656 3 49 3C54.344 3 59 6.643 59 11.5C59 16.357 54.344 20 49 20C48.475 20 47.958 19.966 47.454 19.9L44.554 21.832C44.3894 21.9416 44.1961 22 43.9984 21.9997C43.8007 21.9995 43.6075 21.9406 43.4432 21.8306C43.2789 21.7206 43.151 21.5643 43.0755 21.3816C43 21.1989 42.9803 20.9979 43.019 20.804L43.464 18.583C40.828 17.09 39 14.517 39 11.5ZM47 7C47.2652 7 47.5196 7.10536 47.7071 7.29289C47.8946 7.48043 48 7.73478 48 8V15C48 15.2652 47.8946 15.5196 47.7071 15.7071C47.5196 15.8946 47.2652 16 47 16C46.7348 16 46.4804 15.8946 46.2929 15.7071C46.1054 15.5196 46 15.2652 46 15V8C46 7.73478 46.1054 7.48043 46.2929 7.29289C46.4804 7.10536 46.7348 7 47 7ZM48 12.5C48 12.279 48.073 12.058 48.22 11.875L50.22 9.375C50.3887 9.17742 50.6277 9.05326 50.8864 9.02881C51.145 9.00435 51.403 9.08153 51.6058 9.24399C51.8085 9.40645 51.9401 9.64144 51.9726 9.89921C52.0051 10.157 51.936 10.4173 51.78 10.625L50.28 12.5L51.78 14.375C51.867 14.4769 51.9326 14.5952 51.973 14.7229C52.0134 14.8506 52.0277 14.9851 52.0151 15.1185C52.0025 15.2518 51.9632 15.3813 51.8996 15.4992C51.836 15.6171 51.7494 15.721 51.6448 15.8047C51.5403 15.8885 51.42 15.9504 51.2911 15.9868C51.1622 16.0232 51.0273 16.0333 50.8944 16.0165C50.7615 15.9997 50.6333 15.9564 50.5174 15.8892C50.4016 15.8219 50.3005 15.7321 50.22 15.625L48.22 13.125C48.0776 12.9478 48 12.7273 48 12.5Z" fill="#263238"/>
<rect x="45" y="7" width="8" height="10" fill="#263238"/>
<path d="M49.4299 12.2993L49.9117 7.07547C49.9371 6.80498 49.8737 6.54717 49.7215 6.30204C49.5609 6.04845 49.32 5.92166 48.9988 5.92166C48.6522 5.92166 48.4113 6.04845 48.2761 6.30204C48.1324 6.54717 48.0732 6.80498 48.0986 7.07547L48.5677 12.2993H49.4299ZM49.0115 15.2029C49.2566 15.2029 49.4722 15.1057 49.6581 14.9112C49.8356 14.7168 49.9244 14.4844 49.9244 14.2139C49.9244 13.9434 49.8314 13.7109 49.6455 13.5165C49.4595 13.3221 49.2439 13.2249 48.9988 13.2249C48.7368 13.2249 48.5212 13.3221 48.3522 13.5165C48.1747 13.7109 48.0859 13.9434 48.0859 14.2139C48.0859 14.4844 48.1789 14.7168 48.3648 14.9112C48.5508 15.1057 48.7664 15.2029 49.0115 15.2029Z" fill="white"/>
</g>
<defs>
<filter id="filter0_d_575_416" x="0" y="1" width="69" height="69" filterUnits="userSpaceOnUse" color-interpolation-filters="sRGB">
<feFlood flood-opacity="0" result="BackgroundImageFix"/>
<feColorMatrix in="SourceAlpha" type="matrix" values="0 0 0 0 0 0 0 0 0 0 0 0 0 0 0 0 0 0 127 0" result="hardAlpha"/>
<feOffset dy="4"/>
<feGaussianBlur stdDeviation="2"/>
<feComposite in2="hardAlpha" operator="out"/>
<feColorMatrix type="matrix" values="0 0 0 0 0 0 0 0 0 0 0 0 0 0 0 0 0 0 0.25 0"/>
<feBlend mode="normal" in2="BackgroundImageFix" result="effect1_dropShadow_575_416"/>
<feBlend mode="normal" in="SourceGraphic" in2="effect1_dropShadow_575_416" result="shape"/>
</filter>
<clipPath id="clip0_575_416">
<rect width="24" height="24" fill="white" transform="translate(37)"/>
</clipPath>
</defs>
</svg>
