<svg width="83" height="83" viewBox="0 0 83 83" fill="none" xmlns="http://www.w3.org/2000/svg">
<circle cx="41.5" cy="41.5" r="41.5" fill="#1565C0"/>
<path d="M50.8491 46.9605L41.8491 32.4705C41.7589 32.3265 41.6335 32.2078 41.4849 32.1255C41.3362 32.0432 41.169 32 40.9991 32C40.8291 32 40.662 32.0432 40.5133 32.1255C40.3646 32.2078 40.2393 32.3265 40.1491 32.4705L31.1491 46.9605C30.8391 47.4505 30.9991 48.1805 31.6391 48.4305L40.6391 51.9305C40.7491 52.0005 40.8791 52.0005 40.9991 52.0005C41.1191 52.0005 41.2491 52.0005 41.3591 51.9305L50.3591 48.4305C50.9991 48.1805 51.1591 47.4505 50.8491 46.9605ZM39.9991 36.5005V43.3205L34.4191 45.5005L39.9991 36.5005ZM40.9991 49.9305L34.7591 47.5005L40.9991 45.0705L47.2391 47.5005L40.9991 49.9305ZM41.9991 43.3205V36.5005L47.5791 45.5005L41.9991 43.3205Z" fill="white"/>
</svg>
