<svg width="83" height="83" viewBox="0 0 83 83" fill="none" xmlns="http://www.w3.org/2000/svg">
<circle cx="41.5" cy="41.5" r="41.5" fill="#36A3FA"/>
<path d="M38 42C38.55 42 39.021 41.804 39.413 41.412C39.805 41.02 40.0007 40.5493 40 40C40 39.45 39.804 38.979 39.412 38.587C39.02 38.195 38.5493 37.9993 38 38C37.45 38 36.979 38.196 36.587 38.588C36.195 38.98 35.9993 39.4507 36 40C36 40.55 36.196 41.021 36.588 41.413C36.98 41.805 37.4507 42.0007 38 42ZM44 42C44.55 42 45.021 41.804 45.413 41.412C45.805 41.02 46.0007 40.5493 46 40C46 39.45 45.804 38.979 45.412 38.587C45.02 38.195 44.5493 37.9993 44 38C43.45 38 42.979 38.196 42.587 38.588C42.195 38.98 41.9993 39.4507 42 40C42 40.55 42.196 41.021 42.588 41.413C42.98 41.805 43.4507 42.0007 44 42ZM38 51V47H40V51H38ZM42 51V47H44V51H42ZM34 51C33.45 51 32.979 50.804 32.587 50.412C32.195 50.02 31.9993 49.5493 32 49V39C32 37.3333 32.5833 35.9167 33.75 34.75C34.9167 33.5833 36.3333 33 38 33H44C45.6667 33 47.0833 33.5833 48.25 34.75C49.4167 35.9167 50 37.3333 50 39V49C50 49.55 49.804 50.021 49.412 50.413C49.02 50.805 48.5493 51.0007 48 51H46V47C46 46.45 45.804 45.979 45.412 45.587C45.02 45.195 44.5493 44.9993 44 45H38C37.45 45 36.979 45.196 36.587 45.588C36.195 45.98 35.9993 46.4507 36 47V51H34Z" fill="white"/>
</svg>
