<svg width="83" height="83" viewBox="0 0 83 83" fill="none" xmlns="http://www.w3.org/2000/svg">
<circle cx="41.5" cy="41.5" r="41.5" fill="#0D47A1"/>
<path d="M38.96 36.2803L40.55 39.0003C37.97 39.2603 36 41.4103 36 44.0003C36 45.3264 36.5268 46.5982 37.4645 47.5358C38.4021 48.4735 39.6739 49.0003 41 49.0003C43.05 49.0003 44.81 47.7703 45.58 46.0003H43V44.0003H51V46.0003H48.75C48.3459 47.5485 47.4894 48.9412 46.29 50.0003H49V52.0003H33V50.0003H35.71C34.858 49.2501 34.1756 48.327 33.7083 47.2924C33.241 46.2578 32.9995 45.1355 33 44.0003C33 40.3703 35.46 37.2003 38.96 36.2803ZM42.24 32.0703L43 33.3703L43.86 32.8703L47.36 38.9303L43.89 40.9303L40.39 34.8703L41.26 34.3703L40.5 33.0703L42.24 32.0703Z" fill="white"/>
</svg>
