<svg width="83" height="83" viewBox="0 0 83 83" fill="none" xmlns="http://www.w3.org/2000/svg">
<circle cx="41.5" cy="41.5" r="41.5" fill="#2196F3"/>
<path d="M36.4798 31.6151C36.8628 31.7681 37.1148 32.1391 37.1148 32.5521V40.0551C37.1148 40.323 37.0084 40.5799 36.819 40.7693C36.6296 40.9587 36.3727 41.0651 36.1048 41.0651C35.837 41.0651 35.5801 40.9587 35.3907 40.7693C35.2013 40.5799 35.0948 40.323 35.0948 40.0551V35.2091C35.0947 35.1988 35.0915 35.1887 35.0856 35.1802C35.0798 35.1716 35.0716 35.165 35.062 35.161C35.0524 35.1571 35.0419 35.1561 35.0318 35.158C35.0216 35.16 35.0123 35.1649 35.0048 35.1721C34.9144 35.2719 34.8049 35.3526 34.6828 35.4094C34.5607 35.4663 34.4284 35.4981 34.2938 35.5031C34.1593 35.508 34.025 35.486 33.8991 35.4384C33.7731 35.3907 33.658 35.3183 33.5604 35.2255C33.4628 35.1326 33.3848 35.0212 33.3309 34.8978C33.277 34.7743 33.2484 34.6414 33.2467 34.5067C33.2449 34.372 33.2702 34.2384 33.3209 34.1136C33.3716 33.9888 33.4467 33.8754 33.5418 33.7801L35.3738 31.8561C35.513 31.7101 35.6928 31.6091 35.8899 31.5661C36.087 31.5232 36.2925 31.5402 36.4798 31.6151ZM45.8298 33.5631C45.6508 33.5721 45.3688 33.6601 45.0508 34.0381C44.9659 34.1409 44.8614 34.2258 44.7435 34.288C44.6255 34.3502 44.4964 34.3884 44.3636 34.4005C44.2308 34.4125 44.0969 34.3981 43.9697 34.3581C43.8425 34.3182 43.7245 34.2534 43.6224 34.1676C43.5203 34.0818 43.4363 33.9766 43.3751 33.8581C43.3139 33.7397 43.2768 33.6102 43.2658 33.4774C43.2549 33.3445 43.2704 33.2107 43.3114 33.0838C43.3524 32.957 43.4182 32.8395 43.5048 32.7381C44.1268 31.9981 44.9068 31.5871 45.7288 31.5461C46.1118 31.5287 46.4942 31.5918 46.8512 31.7313C47.2083 31.8709 47.5321 32.0837 47.8018 32.3561C48.9018 33.4531 49.0378 35.3251 47.6278 36.8391C47.2178 37.2791 46.7208 37.7991 46.2178 38.3241V38.3251L45.7309 38.8331C45.7137 38.8508 45.7022 38.8731 45.6977 38.8972C45.6932 38.9214 45.6959 38.9463 45.7055 38.969C45.7151 38.9916 45.7312 39.0109 45.7517 39.0244C45.7722 39.038 45.7963 39.0452 45.8208 39.0451H47.8958C48.1637 39.0451 48.4206 39.1515 48.61 39.3409C48.7994 39.5304 48.9058 39.7873 48.9058 40.0551C48.9058 40.323 48.7994 40.5799 48.61 40.7693C48.4206 40.9587 48.1637 41.0651 47.8958 41.0651H43.8458C42.7599 41.0651 42.1098 39.7691 42.8868 38.9131C43.3788 38.3711 44.1079 37.6081 44.8039 36.8801C45.3039 36.3571 45.7858 35.8531 46.1498 35.4621C46.5348 35.0491 46.6348 34.6871 46.6358 34.4331C46.6376 34.3134 46.6155 34.1946 46.5709 34.0835C46.5263 33.9724 46.46 33.8713 46.3758 33.7861C46.3056 33.7127 46.2207 33.6548 46.1266 33.6164C46.0325 33.578 45.9314 33.5598 45.8298 33.5631ZM35.0188 45.4791C35.0812 45.3489 35.1741 45.2356 35.2896 45.1489C35.405 45.0621 35.5397 45.0045 35.6822 44.981C35.8247 44.9574 35.9707 44.9685 36.108 45.0134C36.2453 45.0583 36.3697 45.1357 36.4707 45.2389C36.5717 45.3421 36.6463 45.4682 36.6882 45.6064C36.7301 45.7446 36.738 45.8909 36.7113 46.0328C36.6847 46.1747 36.6242 46.3081 36.5349 46.4217C36.4457 46.5352 36.3304 46.6256 36.1988 46.6851C36.1871 46.6903 36.1746 46.6937 36.1618 46.6951C35.9202 46.7205 35.6958 46.8322 35.5299 47.0096C35.3639 47.1871 35.2674 47.4184 35.2582 47.6612C35.249 47.904 35.3276 48.142 35.4796 48.3315C35.6316 48.521 35.8468 48.6494 36.0858 48.6931C36.2344 48.7373 36.3691 48.8192 36.4767 48.9307C36.5843 49.0423 36.6613 49.1798 36.7 49.3299C36.7388 49.48 36.7381 49.6376 36.698 49.7873C36.6579 49.9371 36.5798 50.0739 36.4712 50.1846C36.3626 50.2952 36.2273 50.3759 36.0783 50.4188C35.9293 50.4616 35.7718 50.4653 35.621 50.4293C35.4702 50.3933 35.3313 50.319 35.2177 50.2135C35.1042 50.108 35.0198 49.9749 34.9728 49.8271C34.9334 49.6998 34.8692 49.5816 34.7839 49.4792C34.6985 49.3768 34.5938 49.2923 34.4756 49.2306C34.3575 49.1689 34.2283 49.1312 34.0956 49.1197C33.9628 49.1081 33.829 49.123 33.702 49.1634C33.575 49.2037 33.4573 49.2689 33.3555 49.355C33.2538 49.4411 33.1701 49.5464 33.1093 49.665C33.0485 49.7836 33.0118 49.9131 33.0012 50.0459C32.9907 50.1788 33.0065 50.3124 33.0478 50.4391C33.1768 50.8442 33.3927 51.2162 33.6804 51.5292C33.9681 51.8421 34.3208 52.0884 34.7136 52.2508C35.1065 52.4132 35.5301 52.4878 35.9548 52.4694C36.3795 52.451 36.7951 52.34 37.1724 52.1442C37.5497 51.9484 37.8797 51.6725 38.1393 51.3358C38.3989 50.9992 38.5817 50.6099 38.6751 50.1952C38.7685 49.7804 38.7702 49.3503 38.6799 48.9349C38.5897 48.5195 38.4098 48.1288 38.1528 47.7901C38.1353 47.7671 38.1258 47.739 38.1258 47.7101C38.1258 47.6812 38.1353 47.6531 38.1528 47.6301C38.4001 47.3053 38.5765 46.9323 38.6705 46.535C38.7646 46.1378 38.7743 45.7253 38.699 45.3241C38.6236 44.9229 38.4649 44.5419 38.2332 44.2059C38.0014 43.8699 37.7017 43.5862 37.3535 43.3732C37.0052 43.1602 36.6162 43.0227 36.2114 42.9695C35.8067 42.9163 35.3953 42.9486 35.0038 43.0643C34.6124 43.18 34.2496 43.3766 33.9388 43.6413C33.6281 43.9061 33.3763 44.233 33.1998 44.6011C33.1423 44.7206 33.1088 44.8503 33.1013 44.9827C33.0938 45.1152 33.1125 45.2478 33.1563 45.373C33.2447 45.6259 33.43 45.8333 33.6713 45.9496C33.9127 46.0659 34.1904 46.0816 34.4432 45.9932C34.5685 45.9494 34.6838 45.8814 34.7828 45.793C34.8817 45.7046 34.9623 45.5976 35.0198 45.4781L35.0188 45.4791ZM45.4879 44.2581C45.5528 43.9982 45.5119 43.7231 45.3741 43.4934C45.2362 43.2637 45.0128 43.0981 44.7528 43.0331C44.4929 42.9681 44.2179 43.0091 43.9881 43.1469C43.7584 43.2848 43.5928 43.5082 43.5278 43.7681L42.4698 48.0131C42.4326 48.162 42.4298 48.3175 42.4617 48.4677C42.4935 48.6178 42.5592 48.7588 42.6536 48.8797C42.7481 49.0007 42.8689 49.0986 43.0069 49.1659C43.1449 49.2332 43.2963 49.2681 43.4499 49.2681H45.7139C45.7829 49.2681 45.8389 49.3241 45.8389 49.3931V51.4461C45.8389 51.714 45.9453 51.9709 46.1347 52.1603C46.3241 52.3497 46.581 52.4561 46.8489 52.4561C47.1167 52.4561 47.3736 52.3497 47.563 52.1603C47.7524 51.9709 47.8588 51.714 47.8588 51.4461V49.3491C47.8588 49.2891 47.9008 49.2391 47.9578 49.2221C48.1633 49.1579 48.3428 49.0298 48.4703 48.8564C48.5978 48.6829 48.6665 48.4733 48.6665 48.2581C48.6665 48.0429 48.5978 47.8333 48.4703 47.6599C48.3428 47.4865 48.1633 47.3583 47.9578 47.2941C47.9296 47.2864 47.9047 47.2698 47.8866 47.2467C47.8686 47.2236 47.8585 47.1954 47.8578 47.1661V46.6101C47.8496 46.3479 47.7396 46.0992 47.5512 45.9166C47.3628 45.734 47.1107 45.6319 46.8483 45.6319C46.586 45.6319 46.3339 45.734 46.1455 45.9166C45.9571 46.0992 45.8471 46.3479 45.8389 46.6101V47.1231C45.8389 47.1563 45.8257 47.1881 45.8022 47.2115C45.7788 47.235 45.747 47.2481 45.7139 47.2481H44.9028C44.8839 47.2481 44.8652 47.2437 44.8482 47.2354C44.8312 47.2271 44.8163 47.215 44.8047 47.2C44.793 47.1851 44.7849 47.1677 44.7809 47.1492C44.777 47.1307 44.7773 47.1115 44.7818 47.0931L45.4879 44.2581Z" fill="white"/>
<path d="M31 27C30.3434 27 29.6932 27.1293 29.0866 27.3806C28.48 27.6319 27.9288 28.0002 27.4645 28.4645C26.5268 29.4021 26 30.6739 26 32V52C26 53.3261 26.5268 54.5979 27.4645 55.5355C27.9288 55.9998 28.48 56.3681 29.0866 56.6194C29.6932 56.8707 30.3434 57 31 57H51C52.3261 57 53.5979 56.4732 54.5355 55.5355C55.4732 54.5979 56 53.3261 56 52V32C56 31.3434 55.8707 30.6932 55.6194 30.0866C55.3681 29.48 54.9998 28.9288 54.5355 28.4645C54.0712 28.0002 53.52 27.6319 52.9134 27.3806C52.3068 27.1293 51.6566 27 51 27H31ZM28 32C28 31.2044 28.3161 30.4413 28.8787 29.8787C29.4413 29.3161 30.2044 29 31 29H51C51.7956 29 52.5587 29.3161 53.1213 29.8787C53.6839 30.4413 54 31.2044 54 32V52C54 52.7956 53.6839 53.5587 53.1213 54.1213C52.5587 54.6839 51.7956 55 51 55H31C30.2044 55 29.4413 54.6839 28.8787 54.1213C28.3161 53.5587 28 52.7956 28 52V32Z" fill="white"/>
</svg>
