<svg width="83" height="83" viewBox="0 0 83 83" fill="none" xmlns="http://www.w3.org/2000/svg">
<circle cx="41.5" cy="41.5" r="41.5" fill="#1976D2"/>
<path d="M40.5 35.707H42V52.207H40.5V35.707ZM34.3594 31.0664C33.9062 31.5195 33.5039 32.0117 33.1523 32.543C32.8008 33.0742 32.5 33.6367 32.25 34.2305C32 34.8242 31.8164 35.4297 31.6992 36.0469C31.582 36.6641 31.5156 37.3008 31.5 37.957C31.5 38.5977 31.5625 39.2305 31.6875 39.8555C31.8125 40.4805 32 41.0898 32.25 41.6836C32.5 42.2773 32.7969 42.8359 33.1406 43.3594C33.4844 43.8828 33.8906 44.3789 34.3594 44.8477L33.293 45.9141C32.2305 44.8437 31.418 43.6289 30.8555 42.2695C30.293 40.9102 30.0078 39.4727 30 37.957C30 36.4492 30.2812 35.0156 30.8438 33.6562C31.4062 32.2969 32.2227 31.0781 33.293 30L34.3594 31.0664ZM49.207 30C50.2695 31.0703 51.082 32.2852 51.6445 33.6445C52.207 35.0039 52.4922 36.4414 52.5 37.957C52.5 39.4648 52.2188 40.8984 51.6562 42.2578C51.0938 43.6172 50.2773 44.8359 49.207 45.9141L48.1406 44.8477C48.5938 44.3945 48.9961 43.9023 49.3477 43.3711C49.6992 42.8398 50 42.2773 50.25 41.6836C50.5 41.0898 50.6836 40.4844 50.8008 39.8672C50.918 39.25 50.9844 38.6133 51 37.957C51 37.3164 50.9375 36.6836 50.8125 36.0586C50.6875 35.4336 50.5 34.8242 50.25 34.2305C50 33.6367 49.7031 33.0781 49.3594 32.5547C49.0156 32.0312 48.6094 31.5352 48.1406 31.0664L49.207 30ZM46.0195 33.1875C46.6523 33.8203 47.1406 34.5469 47.4844 35.3672C47.8281 36.1875 48 37.0508 48 37.957C48 38.8555 47.8281 39.7148 47.4844 40.5352C47.1406 41.3555 46.6523 42.0859 46.0195 42.7266L44.9648 41.6719C45.457 41.1797 45.832 40.6133 46.0898 39.9727C46.3477 39.332 46.4805 38.6602 46.4883 37.957C46.4883 37.2617 46.3594 36.5938 46.1016 35.9531C45.8438 35.3125 45.4648 34.7422 44.9648 34.2422L46.0195 33.1875ZM37.5352 34.2422C37.043 34.7344 36.6641 35.3008 36.3984 35.9414C36.1328 36.582 36 37.2539 36 37.957C36 38.6523 36.1328 39.3203 36.3984 39.9609C36.6641 40.6016 37.043 41.1719 37.5352 41.6719L36.4805 42.7266C35.8477 42.0938 35.3594 41.3672 35.0156 40.5469C34.6719 39.7266 34.5 38.8633 34.5 37.957C34.5 37.0586 34.6719 36.1992 35.0156 35.3789C35.3594 34.5586 35.8477 33.8281 36.4805 33.1875L37.5352 34.2422Z" fill="white"/>
</svg>
