<svg width="83" height="83" viewBox="0 0 83 83" fill="none" xmlns="http://www.w3.org/2000/svg">
<circle cx="41.5" cy="41.5" r="41.5" fill="#1976D2"/>
<circle cx="41.5" cy="41.5" r="41.5" fill="#1976D2"/>
<path d="M33 31H49C49.2652 31 49.5196 31.1054 49.7071 31.2929C49.8946 31.4804 50 31.7348 50 32V36C50 36.2652 49.8946 36.5196 49.7071 36.7071C49.5196 36.8946 49.2652 37 49 37H33C32.7348 37 32.4804 36.8946 32.2929 36.7071C32.1054 36.5196 32 36.2652 32 36V32C32 31.7348 32.1054 31.4804 32.2929 31.2929C32.4804 31.1054 32.7348 31 33 31ZM33 39H49C49.2652 39 49.5196 39.1054 49.7071 39.2929C49.8946 39.4804 50 39.7348 50 40V44C50 44.2652 49.8946 44.5196 49.7071 44.7071C49.5196 44.8946 49.2652 45 49 45H33C32.7348 45 32.4804 44.8946 32.2929 44.7071C32.1054 44.5196 32 44.2652 32 44V40C32 39.7348 32.1054 39.4804 32.2929 39.2929C32.4804 39.1054 32.7348 39 33 39ZM33 47H49C49.2652 47 49.5196 47.1054 49.7071 47.2929C49.8946 47.4804 50 47.7348 50 48V52C50 52.2652 49.8946 52.5196 49.7071 52.7071C49.5196 52.8946 49.2652 53 49 53H33C32.7348 53 32.4804 52.8946 32.2929 52.7071C32.1054 52.5196 32 52.2652 32 52V48C32 47.7348 32.1054 47.4804 32.2929 47.2929C32.4804 47.1054 32.7348 47 33 47ZM38 35H39V33H38V35ZM38 43H39V41H38V43ZM38 51H39V49H38V51ZM34 33V35H36V33H34ZM34 41V43H36V41H34ZM34 49V51H36V49H34Z" fill="white"/>
</svg>
