<svg width="52" height="52" viewBox="0 0 52 52" fill="none" xmlns="http://www.w3.org/2000/svg">
<path d="M26.4327 23.834L19.4994 23.834C18.8855 23.834 18.3705 24.042 17.9545 24.458C17.5385 24.874 17.3312 25.3882 17.3327 26.0006C17.3327 26.6145 17.5407 27.1295 17.9567 27.5455C18.3727 27.9615 18.8869 28.1688 19.4994 28.1673L26.4327 28.1673L24.4827 30.1173C24.0855 30.5145 23.8868 31.0201 23.8868 31.634C23.8868 32.2479 24.0855 32.7534 24.4827 33.1506C24.8799 33.5479 25.3855 33.7465 25.9994 33.7465C26.6132 33.7465 27.1188 33.5479 27.516 33.1506L33.1493 27.5173C33.5827 27.084 33.7993 26.5784 33.7993 26.0006C33.7993 25.4229 33.5827 24.9173 33.1493 24.484L27.516 18.8506C27.1188 18.4534 26.6132 18.2548 25.9994 18.2548C25.3855 18.2548 24.8799 18.4534 24.4827 18.8506C24.0855 19.2479 23.8868 19.7534 23.8868 20.3673C23.8868 20.9812 24.0855 21.4868 24.4827 21.884L26.4327 23.834ZM4.33269 26.0006C4.33269 23.0034 4.9018 20.1868 6.04002 17.5506C7.17824 14.9145 8.72163 12.6215 10.6702 10.6715C12.6202 8.72148 14.9132 7.17809 17.5494 6.04132C20.1855 4.90454 23.0021 4.33543 25.9994 4.33398C28.9966 4.33398 31.8132 4.90309 34.4493 6.04132C37.0855 7.17954 39.3785 8.72293 41.3285 10.6715C43.2785 12.6215 44.8219 14.9145 45.9587 17.5507C47.0955 20.1868 47.6646 23.0034 47.666 26.0006C47.666 28.9979 47.0969 31.8145 45.9587 34.4506C44.8205 37.0868 43.2771 39.3798 41.3285 41.3298C39.3785 43.2798 37.0855 44.8239 34.4493 45.9621C31.8132 47.1004 28.9966 47.6688 25.9993 47.6673C23.0021 47.6673 20.1855 47.0982 17.5494 45.96C14.9132 44.8218 12.6202 43.2784 10.6702 41.3298C8.72018 39.3798 7.17607 37.0868 6.03785 34.4506C4.89963 31.8145 4.33124 28.9979 4.33269 26.0006Z" fill="#1565C0"/>
</svg>
