<svg width="19" height="19" viewBox="0 0 19 19" fill="none" xmlns="http://www.w3.org/2000/svg">
<path d="M4.53062 12.8356C4.53062 11.3256 7.55062 10.4951 9.06063 10.4951C10.5706 10.4951 13.5906 11.3256 13.5906 12.8356V13.5906H4.53062M11.3256 6.79562C11.3256 7.39634 11.087 7.97245 10.6622 8.39722C10.2375 8.82199 9.66134 9.06063 9.06063 9.06063C8.45991 9.06063 7.8838 8.82199 7.45903 8.39722C7.03426 7.97245 6.79562 7.39634 6.79562 6.79562C6.79562 6.19491 7.03426 5.6188 7.45903 5.19403C7.8838 4.76926 8.45991 4.53063 9.06063 4.53062C9.66134 4.53062 10.2375 4.76926 10.6622 5.19403C11.087 5.6188 11.3256 6.19491 11.3256 6.79562ZM2.26562 3.77562V14.3456C2.26563 14.7461 2.42471 15.1302 2.70789 15.4134C2.99107 15.6965 3.37515 15.8556 3.77562 15.8556H14.3456C14.7461 15.8556 15.1302 15.6965 15.4134 15.4134C15.6965 15.1302 15.8556 14.7461 15.8556 14.3456V3.77562C15.8556 3.37515 15.6965 2.99107 15.4134 2.70789C15.1302 2.42471 14.7461 2.26563 14.3456 2.26562H3.77562C3.37515 2.26563 2.99107 2.42471 2.70789 2.70789C2.42471 2.99107 2.26563 3.37515 2.26562 3.77562Z" fill="white"/>
</svg>
