<svg width="19" height="19" viewBox="0 0 19 19" fill="none" xmlns="http://www.w3.org/2000/svg">
<path d="M13.5159 13.1327C13.3196 12.5287 12.7532 12.0831 12.0812 12.0831H11.3261V9.81784C11.3261 9.61758 11.2465 9.42551 11.1049 9.2839C10.9633 9.14229 10.7713 9.06274 10.571 9.06274H6.04038V7.55254H7.55058C7.75085 7.55254 7.94291 7.47298 8.08452 7.33137C8.22613 7.18976 8.30568 6.9977 8.30568 6.79743V5.28723H9.81589C10.2164 5.28723 10.6005 5.12812 10.8838 4.8449C11.167 4.56168 11.3261 4.17756 11.3261 3.77702V3.46743C12.2296 3.83167 13.0313 4.4094 13.6627 5.15119C14.2941 5.89297 14.7364 6.7767 14.9516 7.72675C15.1668 8.67679 15.1487 9.66484 14.8986 10.6063C14.6486 11.5478 14.1741 12.4147 13.5159 13.1327ZM8.30568 15.0507C5.32303 14.6807 3.01997 12.1436 3.01997 9.06274C3.01997 8.59458 3.08038 8.14151 3.17854 7.71111L6.79548 11.328V12.0831C6.79548 12.4837 6.95459 12.8678 7.23781 13.151C7.52103 13.4342 7.90515 13.5934 8.30568 13.5934M9.06079 1.51172C8.06917 1.51172 7.08727 1.70703 6.17114 2.08651C5.255 2.46598 4.42259 3.02218 3.72141 3.72336C2.30532 5.13945 1.50977 7.06008 1.50977 9.06274C1.50977 11.0654 2.30532 12.986 3.72141 14.4021C4.42259 15.1033 5.255 15.6595 6.17114 16.039C7.08727 16.4184 8.06917 16.6138 9.06079 16.6138C11.0634 16.6138 12.9841 15.8182 14.4002 14.4021C15.8163 12.986 16.6118 11.0654 16.6118 9.06274C16.6118 8.07113 16.4165 7.08922 16.037 6.17309C15.6575 5.25696 15.1013 4.42454 14.4002 3.72336C13.699 3.02218 12.8666 2.46598 11.9504 2.08651C11.0343 1.70703 10.0524 1.51172 9.06079 1.51172Z" fill="white"/>
</svg>
