<svg width="38" height="38" viewBox="0 0 38 38" fill="none" xmlns="http://www.w3.org/2000/svg">
<path d="M28.5002 15.8335H22.1668V9.50016C22.1668 8.66031 21.8332 7.85486 21.2393 7.26099C20.6455 6.66713 19.84 6.3335 19.0002 6.3335C18.1603 6.3335 17.3549 6.66713 16.761 7.26099C16.1671 7.85486 15.8335 8.66031 15.8335 9.50016L15.9459 15.8335H9.50016C8.66031 15.8335 7.85486 16.1671 7.26099 16.761C6.66713 17.3549 6.3335 18.1603 6.3335 19.0002C6.3335 19.84 6.66713 20.6455 7.26099 21.2393C7.85486 21.8332 8.66031 22.1668 9.50016 22.1668L15.9459 22.0544L15.8335 28.5002C15.8335 29.34 16.1671 30.1455 16.761 30.7393C17.3549 31.3332 18.1603 31.6668 19.0002 31.6668C19.84 31.6668 20.6455 31.3332 21.2393 30.7393C21.8332 30.1455 22.1668 29.34 22.1668 28.5002V22.0544L28.5002 22.1668C29.34 22.1668 30.1455 21.8332 30.7393 21.2393C31.3332 20.6455 31.6668 19.84 31.6668 19.0002C31.6668 18.1603 31.3332 17.3549 30.7393 16.761C30.1455 16.1671 29.34 15.8335 28.5002 15.8335Z" fill="#263238"/>
</svg>
