<svg width="24" height="24" viewBox="0 0 24 24" fill="none" xmlns="http://www.w3.org/2000/svg">
<path fill-rule="evenodd" clip-rule="evenodd" d="M5.08395 12.0664C4.43293 13.0429 4.08554 14.1903 4.08555 15.364V16.2004C4.08555 16.5186 3.95912 16.8239 3.73408 17.0489C3.50903 17.2739 3.20381 17.4004 2.88555 17.4004C2.56729 17.4004 2.26206 17.2739 2.03702 17.0489C1.81198 16.8239 1.68555 16.5186 1.68555 16.2004V15.364C1.68555 13.7164 2.17275 12.106 3.08715 10.7344L5.08395 12.0664Z" fill="white"/>
<path fill-rule="evenodd" clip-rule="evenodd" d="M7.44989 10.8004C6.49949 10.8004 5.61149 11.2756 5.08469 12.0664L3.08789 10.7344C3.5667 10.0164 4.21536 9.42769 4.97628 9.02054C5.73721 8.61339 6.58688 8.40037 7.44989 8.40039H7.68629C8.00455 8.40039 8.30978 8.52682 8.53482 8.75186C8.75986 8.97691 8.88629 9.28213 8.88629 9.60039C8.88629 9.91865 8.75986 10.2239 8.53482 10.4489C8.30978 10.674 8.00455 10.8004 7.68629 10.8004H7.44989ZM10.1031 12.0664C10.7547 13.042 11.1015 14.1904 11.1015 15.364V16.2004C11.1015 16.5187 11.2279 16.8239 11.453 17.0489C11.678 17.274 11.9832 17.4004 12.3015 17.4004C12.6198 17.4004 12.925 17.274 13.15 17.0489C13.3751 16.8239 13.5015 16.5187 13.5015 16.2004V15.364C13.5015 13.7163 13.0139 12.1054 12.0999 10.7344L10.1031 12.0664Z" fill="white"/>
<path fill-rule="evenodd" clip-rule="evenodd" d="M7.73718 10.8004C8.68758 10.8004 9.57558 11.2756 10.1024 12.0664L12.0992 10.7344C11.6204 10.0164 10.9717 9.42769 10.2108 9.02054C9.44986 8.61339 8.60019 8.40037 7.73718 8.40039H7.50078C7.18252 8.40039 6.8773 8.52682 6.65225 8.75186C6.42721 8.97691 6.30078 9.28213 6.30078 9.60039C6.30078 9.91865 6.42721 10.2239 6.65225 10.4489C6.8773 10.674 7.18252 10.8004 7.50078 10.8004H7.73718Z" fill="white"/>
<path fill-rule="evenodd" clip-rule="evenodd" d="M7.50156 7.49961C7.89939 7.49961 8.28092 7.34157 8.56222 7.06027C8.84353 6.77896 9.00156 6.39743 9.00156 5.99961C9.00156 5.60178 8.84353 5.22025 8.56222 4.93895C8.28092 4.65764 7.89939 4.49961 7.50156 4.49961C7.10374 4.49961 6.72221 4.65764 6.4409 4.93895C6.1596 5.22025 6.00156 5.60178 6.00156 5.99961C6.00156 6.39743 6.1596 6.77896 6.4409 7.06027C6.72221 7.34157 7.10374 7.49961 7.50156 7.49961ZM7.50156 9.89961C8.53591 9.89961 9.52789 9.48872 10.2593 8.75733C10.9907 8.02593 11.4016 7.03395 11.4016 5.99961C11.4016 4.96527 10.9907 3.97328 10.2593 3.24189C9.52789 2.5105 8.53591 2.09961 7.50156 2.09961C6.46722 2.09961 5.47524 2.5105 4.74385 3.24189C4.01245 3.97328 3.60156 4.96527 3.60156 5.99961C3.60156 7.03395 4.01245 8.02593 4.74385 8.75733C5.47524 9.48872 6.46722 9.89961 7.50156 9.89961ZM13.7848 15.9656C13.1337 16.9422 12.7864 18.0896 12.7864 19.2632V20.0996C12.7864 20.4179 12.6599 20.7231 12.4349 20.9481C12.2098 21.1732 11.9046 21.2996 11.5864 21.2996C11.2681 21.2996 10.9629 21.1732 10.7378 20.9481C10.5128 20.7231 10.3864 20.4179 10.3864 20.0996V19.2632C10.3864 17.6156 10.8736 16.0052 11.788 14.6336L13.7848 15.9656ZM16.15 14.6996C15.1996 14.6996 14.3116 15.1748 13.7848 15.9656L11.788 14.6336C12.2668 13.9156 12.9154 13.3269 13.6764 12.9198C14.4373 12.5126 15.287 12.2996 16.15 12.2996H16.3864C16.7046 12.2996 17.0098 12.426 17.2349 12.6511C17.4599 12.8761 17.5864 13.1813 17.5864 13.4996C17.5864 13.8179 17.4599 14.1231 17.2349 14.3481C17.0098 14.5732 16.7046 14.6996 16.3864 14.6996H16.15ZM18.8032 15.9656C19.4548 16.9412 19.8016 18.0896 19.8016 19.2632V20.0996C19.8016 20.4179 19.928 20.7231 20.153 20.9481C20.3781 21.1732 20.6833 21.2996 21.0016 21.2996C21.3198 21.2996 21.625 21.1732 21.8501 20.9481C22.0751 20.7231 22.2016 20.4179 22.2016 20.0996V19.2632C22.2016 17.6155 21.7139 16.0046 20.8 14.6336L18.8032 15.9656Z" fill="white"/>
<path fill-rule="evenodd" clip-rule="evenodd" d="M16.4364 14.6988C17.3868 14.6988 18.2748 15.174 18.8016 15.9648L20.7984 14.6328C20.3196 13.9148 19.6709 13.3261 18.91 12.919C18.1491 12.5118 17.2994 12.2988 16.4364 12.2988H16.2C15.8817 12.2988 15.5765 12.4253 15.3515 12.6503C15.1264 12.8753 15 13.1806 15 13.4988C15 13.8171 15.1264 14.1223 15.3515 14.3474C15.5765 14.5724 15.8817 14.6988 16.2 14.6988H16.4364Z" fill="white"/>
<path fill-rule="evenodd" clip-rule="evenodd" d="M16.2008 11.4C16.5986 11.4 16.9801 11.242 17.2614 10.9607C17.5427 10.6794 17.7008 10.2978 17.7008 9.9C17.7008 9.50218 17.5427 9.12064 17.2614 8.83934C16.9801 8.55804 16.5986 8.4 16.2008 8.4C15.803 8.4 15.4214 8.55804 15.1401 8.83934C14.8588 9.12064 14.7008 9.50218 14.7008 9.9C14.7008 10.2978 14.8588 10.6794 15.1401 10.9607C15.4214 11.242 15.803 11.4 16.2008 11.4ZM16.2008 13.8C17.2351 13.8 18.2271 13.3891 18.9585 12.6577C19.6899 11.9263 20.1008 10.9343 20.1008 9.9C20.1008 8.86566 19.6899 7.87368 18.9585 7.14228C18.2271 6.41089 17.2351 6 16.2008 6C15.1664 6 14.1745 6.41089 13.4431 7.14228C12.7117 7.87368 12.3008 8.86566 12.3008 9.9C12.3008 10.9343 12.7117 11.9263 13.4431 12.6577C14.1745 13.3891 15.1664 13.8 16.2008 13.8Z" fill="white"/>
</svg>
