<svg width="24" height="24" viewBox="0 0 24 24" fill="none" xmlns="http://www.w3.org/2000/svg">
<g clip-path="url(#clip0_356_289)">
<path d="M22.635 19.185C22.8256 19.0366 22.9775 18.8443 23.0779 18.6246C23.1782 18.4048 23.224 18.1641 23.2113 17.9229C23.1987 17.6816 23.1279 17.447 23.0051 17.239C22.8823 17.0309 22.7111 16.8556 22.506 16.728L22.5 7.995L21 9V16.725C20.7973 16.8526 20.628 17.0268 20.5063 17.2332C20.3846 17.4395 20.3141 17.672 20.3006 17.9111C20.2871 18.1503 20.331 18.3892 20.4287 18.608C20.5263 18.8267 20.6749 19.0189 20.862 19.1685L20.295 19.9215C19.7907 20.563 19.5114 21.3526 19.5 22.1685V24.0015H20.7225C21.0162 24.0015 21.3015 23.9035 21.5332 23.7231C21.7649 23.5427 21.9299 23.2902 22.002 23.0055L22.4985 21.0015V24.0015H23.9985V22.1865C23.987 21.3664 23.7055 20.5729 23.1975 19.929L22.635 19.185ZM12 0L0 6L12 13.5L24 6L12 0Z" fill="white"/>
<path d="M12 15.0009L4.5 10.0059V12.5709C4.5 13.9359 8.91 18.0009 12 18.0009C15.09 18.0009 19.5 13.9359 19.5 12.5709V10.0059L12 15.0009Z" fill="white"/>
</g>
<defs>
<clipPath id="clip0_356_289">
<rect width="24" height="24" fill="white"/>
</clipPath>
</defs>
</svg>
